<svg xmlns="http://www.w3.org/2000/svg" viewBox="0 0 1280 380" width="1280" height="380">
  <defs>
    <pattern id="hero-grid" width="40" height="40" patternUnits="userSpaceOnUse">
      <path d="M 40 0 L 0 0 0 40" fill="none" stroke="#1E293B" stroke-width="1"/>
    </pattern>
    <linearGradient id="card-grad" x1="0%" y1="0%" x2="100%" y2="100%">
      <stop offset="0%" stop-color="#1E293B"/>
      <stop offset="100%" stop-color="#0F172A"/>
    </linearGradient>
  </defs>
  <rect width="1280" height="380" fill="#0F172A" />
  <rect width="1280" height="380" fill="url(#hero-grid)" />
  <text x="80" y="90" fill="#38BDF8" font-size="13" font-family="system-ui, -apple-system, sans-serif" font-weight="700" letter-spacing="2">NESTJS MICROSERVICES PLATFORM</text>
  <text x="80" y="145" fill="#F8FAFC" font-size="46" font-family="system-ui, -apple-system, sans-serif" font-weight="800" letter-spacing="-1">realtime-ops-platform</text>
  <text x="80" y="195" fill="#94A3B8" font-size="18" font-family="system-ui, -apple-system, sans-serif" font-weight="400">Jobs, alerts, incidents, notifications, retries, and realtime</text>
  <text x="80" y="225" fill="#94A3B8" font-size="18" font-family="system-ui, -apple-system, sans-serif" font-weight="400">operational updates over WebSockets.</text>
  <g transform="translate(80, 275)">
    <rect x="0" y="0" width="85" height="32" fill="#1E293B" stroke="#334155" stroke-width="1" rx="6" />
    <text x="42.5" y="21" fill="#E2E8F0" font-size="13" font-family="system-ui, -apple-system, sans-serif" font-weight="600" text-anchor="middle">NestJS</text>
    <rect x="95" y="0" width="105" height="32" fill="#1E293B" stroke="#334155" stroke-width="1" rx="6" />
    <text x="147.5" y="21" fill="#E2E8F0" font-size="13" font-family="system-ui, -apple-system, sans-serif" font-weight="600" text-anchor="middle">TypeScript</text>

    <rect x="210" y="0" width="115" height="32" fill="#1E293B" stroke="#334155" stroke-width="1" rx="6" />
    <text x="267.5" y="21" fill="#E2E8F0" font-size="13" font-family="system-ui, -apple-system, sans-serif" font-weight="600" text-anchor="middle">PostgreSQL</text>

    <rect x="335" y="0" width="105" height="32" fill="#1E293B" stroke="#334155" stroke-width="1" rx="6" />
    <text x="387.5" y="21" fill="#E2E8F0" font-size="13" font-family="system-ui, -apple-system, sans-serif" font-weight="600" text-anchor="middle">RabbitMQ</text>

    <rect x="450" y="0" width="75" height="32" fill="#1E293B" stroke="#334155" stroke-width="1" rx="6" />
    <text x="487.5" y="21" fill="#E2E8F0" font-size="13" font-family="system-ui, -apple-system, sans-serif" font-weight="600" text-anchor="middle">Redis</text>

    <rect x="535" y="0" width="115" height="32" fill="#1E293B" stroke="#334155" stroke-width="1" rx="6" />
    <text x="592.5" y="21" fill="#E2E8F0" font-size="13" font-family="system-ui, -apple-system, sans-serif" font-weight="600" text-anchor="middle">WebSockets</text>
  </g>
  <g transform="translate(740, 50)">
    <rect x="0" y="0" width="480" height="280" fill="url(#card-grad)" stroke="#334155" stroke-width="1" rx="16" />
    <rect x="0" y="0" width="480" height="44" fill="#1E293B" rx="16" />
    <path d="M 0 44 L 480 44" stroke="#334155" stroke-width="1" />
    <circle cx="24" cy="22" r="5" fill="#EF4444" />
    <circle cx="40" cy="22" r="5" fill="#F59E0B" />
    <circle cx="56" cy="22" r="5" fill="#10B981" />
    <text x="240" y="26" fill="#94A3B8" font-size="12" font-family="system-ui, -apple-system, sans-serif" font-weight="600" text-anchor="middle" letter-spacing="1">SYSTEM SNAPSHOT</text>

    <!-- Connectors -->
    <path d="M 120 115 L 120 140" stroke="#475569" stroke-width="1.5" stroke-dasharray="3,3" />
    <path d="M 120 180 L 120 205" stroke="#475569" stroke-width="1.5" stroke-dasharray="3,3" />
    <path d="M 190 160 L 290 160" stroke="#475569" stroke-width="1.5" stroke-dasharray="3,3" />
    <path d="M 360 140 L 360 115" stroke="#475569" stroke-width="1.5" stroke-dasharray="3,3" />
    <path d="M 360 180 L 360 205" stroke="#475569" stroke-width="1.5" stroke-dasharray="3,3" />

    <!-- Nodes -->
    <g transform="translate(50, 75)">
      <rect width="140" height="40" fill="#0F172A" stroke="#334155" stroke-width="1" rx="6" />
      <rect width="4" height="40" fill="#38BDF8" rx="2" />
      <text x="70" y="25" fill="#F8FAFC" font-size="12" font-family="system-ui, -apple-system, sans-serif" font-weight="600" text-anchor="middle">API Gateway</text>
    </g>

    <g transform="translate(50, 140)">
      <rect width="140" height="40" fill="#0F172A" stroke="#334155" stroke-width="1" rx="6" />
      <rect width="4" height="40" fill="#F97316" rx="2" />
      <text x="70" y="25" fill="#F8FAFC" font-size="12" font-family="system-ui, -apple-system, sans-serif" font-weight="600" text-anchor="middle">RabbitMQ</text>
    </g>

    <g transform="translate(50, 205)">
      <rect width="140" height="40" fill="#0F172A" stroke="#334155" stroke-width="1" rx="6" />
      <rect width="4" height="40" fill="#F59E0B" rx="2" />
      <text x="70" y="25" fill="#F8FAFC" font-size="12" font-family="system-ui, -apple-system, sans-serif" font-weight="600" text-anchor="middle">PostgreSQL</text>
    </g>

    <g transform="translate(290, 75)">
      <rect width="140" height="40" fill="#0F172A" stroke="#334155" stroke-width="1" rx="6" />
      <rect width="4" height="40" fill="#38BDF8" rx="2" />
      <text x="70" y="25" fill="#F8FAFC" font-size="12" font-family="system-ui, -apple-system, sans-serif" font-weight="600" text-anchor="middle">Realtime Gateway</text>
    </g>

    <g transform="translate(290, 140)">
      <rect width="140" height="40" fill="#0F172A" stroke="#334155" stroke-width="1" rx="6" />
      <rect width="4" height="40" fill="#10B981" rx="2" />
      <text x="70" y="25" fill="#F8FAFC" font-size="12" font-family="system-ui, -apple-system, sans-serif" font-weight="600" text-anchor="middle">Processing Service</text>
    </g>

    <g transform="translate(290, 205)">
      <rect width="140" height="40" fill="#0F172A" stroke="#334155" stroke-width="1" rx="6" />
      <rect width="4" height="40" fill="#A855F7" rx="2" />
      <text x="70" y="25" fill="#F8FAFC" font-size="12" font-family="system-ui, -apple-system, sans-serif" font-weight="600" text-anchor="middle">Redis</text>
    </g>
  </g>
</svg>
